STARTFONT 2.1
COMMENT
COMMENT Converted from OpenType font "Aurebesh.otf" by "otf2bdf 3.0".
COMMENT
FONT -FreeType-Aurebesh-Medium-R-Normal--17-120-100-100-P-115-ISO10646-1
SIZE 12 100 100
FONTBOUNDINGBOX 17 19 0 -3
STARTPROPERTIES 19
FOUNDRY "FreeType"
FAMILY_NAME "Aurebesh"
WEIGHT_NAME "Medium"
SLANT "R"
SETWIDTH_NAME "Normal"
ADD_STYLE_NAME ""
PIXEL_SIZE 17
POINT_SIZE 120
RESOLUTION_X 100
RESOLUTION_Y 100
SPACING "P"
AVERAGE_WIDTH 115
CHARSET_REGISTRY "ISO10646"
CHARSET_ENCODING "1"
FONT_ASCENT 13
FONT_DESCENT 3
COPYRIGHT "Aurebesh © (Neale Davidson). 2013. All Rights Reserved"
_OTF_FONTFILE "Aurebesh.otf"
_OTF_PSNAME "Aurebesh"
ENDPROPERTIES
CHARS 242
STARTCHAR 0000
ENCODING 0
SWIDTH 0 0
DWIDTH 0 0
BBX 0 0 0 0
BITMAP
ENDCHAR
STARTCHAR 001D
ENCODING 29
SWIDTH 0 0
DWIDTH 0 0
BBX 0 0 0 0
BITMAP
ENDCHAR
STARTCHAR 0020
ENCODING 32
SWIDTH 600 0
DWIDTH 10 0
BBX 0 0 0 0
BITMAP
ENDCHAR
STARTCHAR 0021
ENCODING 33
SWIDTH 360 0
DWIDTH 6 0
BBX 5 10 0 1
BITMAP
08
18
70
E0
C8
98
30
E0
C0
80
ENDCHAR
STARTCHAR 0022
ENCODING 34
SWIDTH 480 0
DWIDTH 8 0
BBX 7 6 0 6
BITMAP
C6
CC
D8
F0
E0
C0
ENDCHAR
STARTCHAR 0023
ENCODING 35
SWIDTH 780 0
DWIDTH 13 0
BBX 12 12 0 0
BITMAP
1900
1900
1900
F9F0
F9F0
0000
0000
F9F0
F9F0
1900
1900
1900
ENDCHAR
STARTCHAR 0024
ENCODING 36
SWIDTH 780 0
DWIDTH 13 0
BBX 12 12 0 0
BITMAP
2600
FFF0
FFF0
2660
2660
00C0
0180
0380
0300
0600
0C00
1C00
ENDCHAR
STARTCHAR 0025
ENCODING 37
SWIDTH 900 0
DWIDTH 15 0
BBX 13 12 0 0
BITMAP
7D00
FD00
C700
F700
F7F0
C7F8
FF18
7F68
0768
0798
07F8
06F0
ENDCHAR
STARTCHAR 0026
ENCODING 38
SWIDTH 900 0
DWIDTH 15 0
BBX 13 12 0 0
BITMAP
C0F8
C0F8
61B0
61B0
61B0
3330
3330
3330
1E30
1E30
1FF8
0FF8
ENDCHAR
STARTCHAR 0027
ENCODING 39
SWIDTH 300 0
DWIDTH 5 0
BBX 3 7 0 7
BITMAP
E0
E0
20
20
20
20
20
ENDCHAR
STARTCHAR 0028
ENCODING 40
SWIDTH 300 0
DWIDTH 5 0
BBX 3 12 0 0
BITMAP
C0
C0
C0
C0
C0
E0
E0
C0
C0
C0
C0
C0
ENDCHAR
STARTCHAR 0029
ENCODING 41
SWIDTH 300 0
DWIDTH 5 0
BBX 3 12 0 0
BITMAP
20
20
20
20
20
E0
E0
20
20
20
20
20
ENDCHAR
STARTCHAR 002A
ENCODING 42
SWIDTH 480 0
DWIDTH 8 0
BBX 7 7 0 5
BITMAP
74
FC
7C
FE
FE
FC
74
ENDCHAR
STARTCHAR 002B
ENCODING 43
SWIDTH 600 0
DWIDTH 10 0
BBX 9 9 0 1
BITMAP
0800
0800
0800
FF80
FF80
0800
0800
0800
0800
ENDCHAR
STARTCHAR 002C
ENCODING 44
SWIDTH 180 0
DWIDTH 3 0
BBX 2 5 0 0
BITMAP
C0
C0
C0
C0
C0
ENDCHAR
STARTCHAR 002D
ENCODING 45
SWIDTH 600 0
DWIDTH 10 0
BBX 9 2 0 5
BITMAP
FF80
FF80
ENDCHAR
STARTCHAR 002E
ENCODING 46
SWIDTH 360 0
DWIDTH 6 0
BBX 5 5 0 0
BITMAP
D8
D8
D8
D8
D8
ENDCHAR
STARTCHAR 002F
ENCODING 47
SWIDTH 300 0
DWIDTH 5 0
BBX 3 12 0 0
BITMAP
20
20
20
20
20
60
40
C0
C0
C0
C0
C0
ENDCHAR
STARTCHAR 0030
ENCODING 48
SWIDTH 840 0
DWIDTH 14 0
BBX 12 12 0 0
BITMAP
7FE0
FFF0
C010
C010
C010
C610
C610
C010
C010
C010
FFF0
7FE0
ENDCHAR
STARTCHAR 0031
ENCODING 49
SWIDTH 780 0
DWIDTH 13 0
BBX 12 12 0 0
BITMAP
FE00
FE00
0600
0600
0600
0600
0600
0600
0600
0600
FFF0
FFF0
ENDCHAR
STARTCHAR 0032
ENCODING 50
SWIDTH 780 0
DWIDTH 13 0
BBX 12 12 0 0
BITMAP
7FE0
FFE0
C030
C030
0030
0030
FFE0
FFE0
0000
0000
FFF0
FFF0
ENDCHAR
STARTCHAR 0033
ENCODING 51
SWIDTH 780 0
DWIDTH 13 0
BBX 12 12 0 0
BITMAP
7FE0
FFE0
C030
C030
0030
FF30
FF30
0030
C030
C020
FFE0
7FE0
ENDCHAR
STARTCHAR 0034
ENCODING 52
SWIDTH 780 0
DWIDTH 13 0
BBX 12 12 0 0
BITMAP
C030
C030
C030
C030
C030
FFF0
FFF0
0030
0030
0030
0030
0030
ENDCHAR
STARTCHAR 0035
ENCODING 53
SWIDTH 780 0
DWIDTH 13 0
BBX 12 12 0 0
BITMAP
FFF0
FFF0
0000
0000
FFE0
FFE0
0030
0030
C030
C030
FFE0
7FE0
ENDCHAR
STARTCHAR 0036
ENCODING 54
SWIDTH 780 0
DWIDTH 13 0
BBX 12 12 0 0
BITMAP
FFF0
FFF0
0000
0000
7FE0
FFE0
C030
C030
C030
C030
FFE0
7FE0
ENDCHAR
STARTCHAR 0037
ENCODING 55
SWIDTH 780 0
DWIDTH 13 0
BBX 12 12 0 0
BITMAP
FFF0
FFF0
0030
0030
0030
0030
0030
0030
0030
0030
0030
0030
ENDCHAR
STARTCHAR 0038
ENCODING 56
SWIDTH 840 0
DWIDTH 14 0
BBX 12 12 0 0
BITMAP
7FF0
FFF0
C010
C010
C010
FFF0
FFF0
C010
C010
C010
FFF0
7FF0
ENDCHAR
STARTCHAR 0039
ENCODING 57
SWIDTH 780 0
DWIDTH 13 0
BBX 12 12 0 0
BITMAP
7FE0
FFE0
C030
C030
C030
C030
FFE0
7FE0
0000
0000
FFF0
FFF0
ENDCHAR
STARTCHAR 003A
ENCODING 58
SWIDTH 420 0
DWIDTH 7 0
BBX 6 6 0 0
BITMAP
E0
60
30
18
FC
FC
ENDCHAR
STARTCHAR 003B
ENCODING 59
SWIDTH 180 0
DWIDTH 3 0
BBX 2 12 0 0
BITMAP
C0
C0
C0
C0
C0
C0
C0
C0
C0
C0
C0
C0
ENDCHAR
STARTCHAR 003C
ENCODING 60
SWIDTH 600 0
DWIDTH 10 0
BBX 9 8 0 2
BITMAP
0180
0F80
7C00
E000
E000
7C00
0F80
0180
ENDCHAR
STARTCHAR 003D
ENCODING 61
SWIDTH 600 0
DWIDTH 10 0
BBX 9 6 0 3
BITMAP
FF80
FF80
0000
0000
FF80
FF80
ENDCHAR
STARTCHAR 003E
ENCODING 62
SWIDTH 600 0
DWIDTH 10 0
BBX 9 8 0 2
BITMAP
C000
7800
1F00
0380
0380
1F00
F800
C000
ENDCHAR
STARTCHAR 003F
ENCODING 63
SWIDTH 360 0
DWIDTH 6 0
BBX 5 12 0 0
BITMAP
E0
F0
D0
D8
18
18
18
18
18
10
30
20
ENDCHAR
STARTCHAR 0040
ENCODING 64
SWIDTH 780 0
DWIDTH 13 0
BBX 12 12 0 0
BITMAP
7FF0
FFC0
C180
DF00
DE00
C000
C000
DE00
DF00
C180
FFC0
7FF0
ENDCHAR
STARTCHAR 0041
ENCODING 65
SWIDTH 960 0
DWIDTH 16 0
BBX 15 12 0 0
BITMAP
E006
7006
3806
1FFE
0FFE
0000
0000
0FFE
1FFE
3806
7006
E006
ENDCHAR
STARTCHAR 0042
ENCODING 66
SWIDTH 960 0
DWIDTH 16 0
BBX 15 12 0 0
BITMAP
1FF0
3FF8
600C
8002
0000
3FF0
3FF0
0000
C00E
601C
3FF8
1FF0
ENDCHAR
STARTCHAR 0043
ENCODING 67
SWIDTH 600 0
DWIDTH 10 0
BBX 8 12 0 0
BITMAP
01
01
01
01
D9
D9
D9
D9
C0
C0
C0
C0
ENDCHAR
STARTCHAR 0044
ENCODING 68
SWIDTH 780 0
DWIDTH 13 0
BBX 12 12 0 0
BITMAP
FFF0
FFF0
6000
6000
3000
1FC0
1FC0
0C00
0600
0600
0300
0180
ENDCHAR
STARTCHAR 0045
ENCODING 69
SWIDTH 900 0
DWIDTH 15 0
BBX 13 12 0 0
BITMAP
F818
FC18
2C10
2C30
2630
2620
2660
2360
2340
23C0
21C0
21C0
ENDCHAR
STARTCHAR 0046
ENCODING 70
SWIDTH 900 0
DWIDTH 15 0
BBX 13 12 0 0
BITMAP
0200
8200
C200
6200
3E00
0FF8
03F8
0208
0208
0208
FFF8
FFF8
ENDCHAR
STARTCHAR 0047
ENCODING 71
SWIDTH 1020 0
DWIDTH 17 0
BBX 15 12 0 0
BITMAP
FFF6
7FF6
6036
3006
3006
3806
1806
1806
0C06
0C06
07FE
07FE
ENDCHAR
STARTCHAR 0048
ENCODING 72
SWIDTH 780 0
DWIDTH 13 0
BBX 12 12 0 0
BITMAP
FFF0
FFF0
0000
0000
0000
3FC0
3FC0
0000
0000
0000
FFF0
FFF0
ENDCHAR
STARTCHAR 0049
ENCODING 73
SWIDTH 360 0
DWIDTH 6 0
BBX 5 12 0 0
BITMAP
C0
E0
F8
D0
C0
C0
C0
C0
C0
C0
C0
C0
ENDCHAR
STARTCHAR 004A
ENCODING 74
SWIDTH 900 0
DWIDTH 15 0
BBX 13 12 0 0
BITMAP
C000
6000
7000
3800
3F00
3BF8
1878
1800
0C00
0C00
07F8
07F8
ENDCHAR
STARTCHAR 004B
ENCODING 75
SWIDTH 960 0
DWIDTH 16 0
BBX 15 12 0 0
BITMAP
7FFC
FFFE
C006
C006
C000
C000
C000
C000
C006
C006
FFFE
7FFC
ENDCHAR
STARTCHAR 004C
ENCODING 76
SWIDTH 780 0
DWIDTH 13 0
BBX 12 12 0 0
BITMAP
C000
C000
C000
C000
C000
C070
C1C0
C380
CE00
D800
F000
C000
ENDCHAR
STARTCHAR 004D
ENCODING 77
SWIDTH 720 0
DWIDTH 12 0
BBX 11 12 0 0
BITMAP
FC00
FC00
0600
0600
0300
0300
0180
0180
00C0
00C0
FFE0
FFE0
ENDCHAR
STARTCHAR 004E
ENCODING 78
SWIDTH 900 0
DWIDTH 15 0
BBX 13 12 0 0
BITMAP
0C30
1E38
1E18
1E08
3308
3308
3308
6188
6188
6198
C0F8
C0F0
ENDCHAR
STARTCHAR 004F
ENCODING 79
SWIDTH 1020 0
DWIDTH 17 0
BBX 16 12 0 0
BITMAP
0FF0
0FF0
1C18
1818
180C
300C
300C
6006
6006
C003
FFFF
7FFF
ENDCHAR
STARTCHAR 0050
ENCODING 80
SWIDTH 780 0
DWIDTH 13 0
BBX 12 12 0 0
BITMAP
C1E0
C1E0
C1A0
C1B0
C030
C030
C030
C030
C030
C020
FFE0
FFE0
ENDCHAR
STARTCHAR 0051
ENCODING 81
SWIDTH 900 0
DWIDTH 15 0
BBX 13 12 0 0
BITMAP
7FF0
FFF8
C018
C008
0008
0008
0008
0008
0008
0018
01F8
01F0
ENDCHAR
STARTCHAR 0052
ENCODING 82
SWIDTH 780 0
DWIDTH 13 0
BBX 12 12 0 0
BITMAP
FFF0
FFF0
6000
6000
3000
1800
1800
0C00
0600
0600
0300
0180
ENDCHAR
STARTCHAR 0053
ENCODING 83
SWIDTH 900 0
DWIDTH 15 0
BBX 13 12 0 0
BITMAP
C030
C060
C0C0
C0C0
C180
C300
C600
CC08
CC38
D8E0
F780
E200
ENDCHAR
STARTCHAR 0054
ENCODING 84
SWIDTH 900 0
DWIDTH 15 0
BBX 13 12 0 0
BITMAP
0200
0200
0200
0200
0200
0200
E218
3230
1A60
1EC0
0F80
0700
ENDCHAR
STARTCHAR 0055
ENCODING 85
SWIDTH 900 0
DWIDTH 15 0
BBX 14 12 0 0
BITMAP
FC0C
FE0C
C30C
C18C
C00C
C00C
C00C
C00C
C00C
C00C
FFFC
7FF0
ENDCHAR
STARTCHAR 0056
ENCODING 86
SWIDTH 900 0
DWIDTH 15 0
BBX 13 12 0 0
BITMAP
E018
6030
3060
18C0
0D80
0700
0200
0200
0200
0200
0200
0200
ENDCHAR
STARTCHAR 0057
ENCODING 87
SWIDTH 1020 0
DWIDTH 17 0
BBX 15 12 0 0
BITMAP
7FFC
FFFE
C006
C002
C002
C002
C002
C002
C002
C006
FFFE
7FFC
ENDCHAR
STARTCHAR 0058
ENCODING 88
SWIDTH 840 0
DWIDTH 14 0
BBX 12 12 0 0
BITMAP
0700
0F00
0F80
1D80
1980
18C0
30C0
3060
6060
6030
FFF0
FFF0
ENDCHAR
STARTCHAR 0059
ENCODING 89
SWIDTH 900 0
DWIDTH 15 0
BBX 13 12 0 0
BITMAP
C1F8
63F8
6330
3730
3060
3860
18C0
18C0
0D80
0D80
0780
0700
ENDCHAR
STARTCHAR 005A
ENCODING 90
SWIDTH 960 0
DWIDTH 16 0
BBX 15 12 0 0
BITMAP
C000
FFC0
FFE0
C030
C018
C00C
C000
C000
C000
C006
FFFE
FFFE
ENDCHAR
STARTCHAR 005B
ENCODING 91
SWIDTH 300 0
DWIDTH 5 0
BBX 3 12 0 0
BITMAP
C0
E0
E0
C0
C0
C0
C0
C0
C0
E0
E0
C0
ENDCHAR
STARTCHAR 005C
ENCODING 92
SWIDTH 300 0
DWIDTH 5 0
BBX 3 12 0 0
BITMAP
C0
C0
C0
C0
C0
40
60
60
20
20
20
20
ENDCHAR
STARTCHAR 005D
ENCODING 93
SWIDTH 300 0
DWIDTH 5 0
BBX 3 12 0 0
BITMAP
20
E0
E0
20
20
20
20
20
20
E0
E0
20
ENDCHAR
STARTCHAR 005E
ENCODING 94
SWIDTH 300 0
DWIDTH 5 0
BBX 4 2 0 13
BITMAP
60
F0
ENDCHAR
STARTCHAR 005F
ENCODING 95
SWIDTH 780 0
DWIDTH 13 0
BBX 12 2 0 -3
BITMAP
FFF0
FFF0
ENDCHAR
STARTCHAR 0060
ENCODING 96
SWIDTH 180 0
DWIDTH 3 0
BBX 2 3 0 13
BITMAP
80
C0
C0
ENDCHAR
STARTCHAR 0061
ENCODING 97
SWIDTH 960 0
DWIDTH 16 0
BBX 15 12 0 0
BITMAP
C00E
C018
C030
FFE0
FFC0
0000
0000
FFC0
FFE0
C030
C018
C00E
ENDCHAR
STARTCHAR 0062
ENCODING 98
SWIDTH 960 0
DWIDTH 16 0
BBX 15 12 0 0
BITMAP
1FF0
3FF8
600C
8002
0000
3FF0
3FF0
0000
C00E
601C
3FF8
1FF0
ENDCHAR
STARTCHAR 0063
ENCODING 99
SWIDTH 600 0
DWIDTH 10 0
BBX 8 12 0 0
BITMAP
C0
C0
C0
C0
D9
D9
D9
D9
01
01
01
01
ENDCHAR
STARTCHAR 0064
ENCODING 100
SWIDTH 780 0
DWIDTH 13 0
BBX 12 12 0 0
BITMAP
FFF0
FFF0
0060
00C0
00C0
3F80
3F00
0700
0600
0C00
1C00
3800
ENDCHAR
STARTCHAR 0065
ENCODING 101
SWIDTH 900 0
DWIDTH 15 0
BBX 13 12 0 0
BITMAP
C0F8
C0F8
61B0
61B0
61B0
3330
3330
3330
1E30
1E30
1E30
0C30
ENDCHAR
STARTCHAR 0066
ENCODING 102
SWIDTH 900 0
DWIDTH 15 0
BBX 13 12 0 0
BITMAP
0200
0208
0208
0238
03E0
FFC0
FE00
C200
C200
C200
FFF8
FFF8
ENDCHAR
STARTCHAR 0067
ENCODING 103
SWIDTH 1020 0
DWIDTH 17 0
BBX 15 12 0 0
BITMAP
DFFE
DFFC
D80C
C018
C018
C030
C030
C070
C060
C060
FFC0
FFC0
ENDCHAR
STARTCHAR 0068
ENCODING 104
SWIDTH 780 0
DWIDTH 13 0
BBX 12 12 0 0
BITMAP
FFF0
FFF0
0000
0000
0000
3FC0
3FC0
0000
0000
0000
FFF0
FFF0
ENDCHAR
STARTCHAR 0069
ENCODING 105
SWIDTH 360 0
DWIDTH 6 0
BBX 5 12 0 0
BITMAP
38
78
F8
98
18
18
18
18
18
18
18
18
ENDCHAR
STARTCHAR 006A
ENCODING 106
SWIDTH 900 0
DWIDTH 15 0
BBX 13 12 0 0
BITMAP
0018
0038
0070
00F0
03E0
FF60
F0C0
00C0
0180
0180
FF80
FF00
ENDCHAR
STARTCHAR 006B
ENCODING 107
SWIDTH 960 0
DWIDTH 16 0
BBX 15 12 0 0
BITMAP
7FFC
FFFE
C006
C006
0006
0006
0006
0006
C006
C006
FFFE
7FFC
ENDCHAR
STARTCHAR 006C
ENCODING 108
SWIDTH 780 0
DWIDTH 13 0
BBX 12 12 0 0
BITMAP
0030
0030
0030
0030
0030
E030
3030
1C30
0730
03B0
00F0
0070
ENDCHAR
STARTCHAR 006D
ENCODING 109
SWIDTH 720 0
DWIDTH 12 0
BBX 11 12 0 0
BITMAP
07E0
07E0
0C00
0C00
1800
1800
3800
3000
3000
6000
7FE0
FFE0
ENDCHAR
STARTCHAR 006E
ENCODING 110
SWIDTH 900 0
DWIDTH 15 0
BBX 13 12 0 0
BITMAP
61C0
E1C0
C3C0
C360
C360
C660
C630
C630
CC30
CC18
FC18
7818
ENDCHAR
STARTCHAR 006F
ENCODING 111
SWIDTH 1020 0
DWIDTH 17 0
BBX 16 12 0 0
BITMAP
0FF0
0FF0
1C18
1818
180C
300C
300C
6006
6006
C003
FFFF
7FFF
ENDCHAR
STARTCHAR 0070
ENCODING 112
SWIDTH 780 0
DWIDTH 13 0
BBX 12 12 0 0
BITMAP
7830
F830
D830
D830
C030
C030
C030
C030
C030
C030
FFF0
7FF0
ENDCHAR
STARTCHAR 0071
ENCODING 113
SWIDTH 900 0
DWIDTH 15 0
BBX 13 12 0 0
BITMAP
7FF0
FFF8
C018
C008
C000
C000
C000
C000
C000
C000
FE00
7E00
ENDCHAR
STARTCHAR 0072
ENCODING 114
SWIDTH 780 0
DWIDTH 13 0
BBX 12 12 0 0
BITMAP
FFF0
FFF0
0060
00C0
00C0
0180
0300
0300
0600
0C00
0C00
3800
ENDCHAR
STARTCHAR 0073
ENCODING 115
SWIDTH 900 0
DWIDTH 15 0
BBX 13 12 0 0
BITMAP
6008
3008
1808
0C08
0C08
0608
0308
4188
F0C8
38C8
0F68
0238
ENDCHAR
STARTCHAR 0074
ENCODING 116
SWIDTH 900 0
DWIDTH 15 0
BBX 13 12 0 0
BITMAP
0200
0200
0200
0200
0200
0200
E218
3230
1A60
1EC0
0F80
0700
ENDCHAR
STARTCHAR 0075
ENCODING 117
SWIDTH 900 0
DWIDTH 15 0
BBX 14 12 0 0
BITMAP
C0FC
C1FC
C30C
C60C
C00C
C00C
C00C
C00C
C00C
C00C
FFFC
7FF0
ENDCHAR
STARTCHAR 0076
ENCODING 118
SWIDTH 900 0
DWIDTH 15 0
BBX 13 12 0 0
BITMAP
E018
6030
3060
18C0
0D80
0700
0200
0200
0200
0200
0200
0200
ENDCHAR
STARTCHAR 0077
ENCODING 119
SWIDTH 1020 0
DWIDTH 17 0
BBX 15 12 0 0
BITMAP
7FFC
FFFE
C006
C002
C002
C002
C002
C002
C002
C006
FFFE
7FFC
ENDCHAR
STARTCHAR 0078
ENCODING 120
SWIDTH 840 0
DWIDTH 14 0
BBX 12 12 0 0
BITMAP
0700
0F00
0F80
1D80
1980
18C0
30C0
3060
6060
6030
FFF0
FFF0
ENDCHAR
STARTCHAR 0079
ENCODING 121
SWIDTH 900 0
DWIDTH 15 0
BBX 13 12 0 0
BITMAP
FC18
7E18
6630
3330
3060
3860
18C0
18C0
0D80
0D80
0780
0700
ENDCHAR
STARTCHAR 007A
ENCODING 122
SWIDTH 960 0
DWIDTH 16 0
BBX 15 12 0 0
BITMAP
0006
07FE
0FFE
1806
3006
6006
0006
0006
0006
C006
FFFE
FFFE
ENDCHAR
STARTCHAR 007B
ENCODING 123
SWIDTH 840 0
DWIDTH 14 0
BBX 12 12 0 0
BITMAP
0200
2740
4B20
8610
8610
8610
8610
C630
7FF0
7FE0
3FC0
0F00
ENDCHAR
STARTCHAR 007C
ENCODING 124
SWIDTH 840 0
DWIDTH 14 0
BBX 12 12 0 0
BITMAP
FFF0
8010
8010
8010
8010
8010
8010
8010
8010
8010
8010
FFF0
ENDCHAR
STARTCHAR 007D
ENCODING 125
SWIDTH 840 0
DWIDTH 14 0
BBX 12 12 0 0
BITMAP
0F80
3DC0
7DE0
68B0
E070
F070
F070
E8B0
7DF0
5DA0
2640
1F80
ENDCHAR
STARTCHAR 007E
ENCODING 126
SWIDTH 840 0
DWIDTH 14 0
BBX 12 12 0 0
BITMAP
FFF0
8010
8010
8010
8010
8010
8010
8010
8010
8010
8010
FFF0
ENDCHAR
STARTCHAR 00A0
ENCODING 160
SWIDTH 600 0
DWIDTH 10 0
BBX 0 0 0 0
BITMAP
ENDCHAR
STARTCHAR 00A1
ENCODING 161
SWIDTH 360 0
DWIDTH 6 0
BBX 5 10 0 1
BITMAP
80
C0
E0
38
98
C8
E0
70
18
08
ENDCHAR
STARTCHAR 00A2
ENCODING 162
SWIDTH 780 0
DWIDTH 13 0
BBX 12 12 0 0
BITMAP
2600
FFF0
FFF0
2660
2660
00C0
0180
0380
0300
0600
0C00
1C00
ENDCHAR
STARTCHAR 00A3
ENCODING 163
SWIDTH 780 0
DWIDTH 13 0
BBX 12 12 0 0
BITMAP
2600
FFF0
FFF0
2660
2660
00C0
0180
0380
0300
0600
0C00
1C00
ENDCHAR
STARTCHAR 00A4
ENCODING 164
SWIDTH 780 0
DWIDTH 13 0
BBX 12 12 0 0
BITMAP
2600
FFF0
FFF0
2660
2660
00C0
0180
0380
0300
0600
0C00
1C00
ENDCHAR
STARTCHAR 00A5
ENCODING 165
SWIDTH 780 0
DWIDTH 13 0
BBX 12 12 0 0
BITMAP
2600
FFF0
FFF0
2660
2660
00C0
0180
0380
0300
0600
0C00
1C00
ENDCHAR
STARTCHAR 00A6
ENCODING 166
SWIDTH 840 0
DWIDTH 14 0
BBX 12 12 0 0
BITMAP
FFF0
8010
8010
8010
8010
8010
8010
8010
8010
8010
8010
FFF0
ENDCHAR
STARTCHAR 00A7
ENCODING 167
SWIDTH 840 0
DWIDTH 14 0
BBX 12 12 0 0
BITMAP
FFF0
8010
8010
8010
8010
8010
8010
8010
8010
8010
8010
FFF0
ENDCHAR
STARTCHAR 00A8
ENCODING 168
SWIDTH 840 0
DWIDTH 14 0
BBX 12 12 0 0
BITMAP
FFF0
8010
8010
8010
8010
8010
8010
8010
8010
8010
8010
FFF0
ENDCHAR
STARTCHAR 00A9
ENCODING 169
SWIDTH 840 0
DWIDTH 14 0
BBX 12 12 0 0
BITMAP
FFF0
8010
8010
8010
8010
8010
8010
8010
8010
8010
8010
FFF0
ENDCHAR
STARTCHAR 00AA
ENCODING 170
SWIDTH 840 0
DWIDTH 14 0
BBX 12 12 0 0
BITMAP
FFF0
8010
8010
8010
8010
8010
8010
8010
8010
8010
8010
FFF0
ENDCHAR
STARTCHAR 00AB
ENCODING 171
SWIDTH 840 0
DWIDTH 14 0
BBX 12 12 0 0
BITMAP
FFF0
8010
8010
8010
8010
8010
8010
8010
8010
8010
8010
FFF0
ENDCHAR
STARTCHAR 00AC
ENCODING 172
SWIDTH 840 0
DWIDTH 14 0
BBX 12 12 0 0
BITMAP
FFF0
8010
8010
8010
8010
8010
8010
8010
8010
8010
8010
FFF0
ENDCHAR
STARTCHAR 00AD
ENCODING 173
SWIDTH 600 0
DWIDTH 10 0
BBX 9 2 0 5
BITMAP
FF80
FF80
ENDCHAR
STARTCHAR 00AE
ENCODING 174
SWIDTH 840 0
DWIDTH 14 0
BBX 12 12 0 0
BITMAP
FFF0
8010
8010
8010
8010
8010
8010
8010
8010
8010
8010
FFF0
ENDCHAR
STARTCHAR 00AF
ENCODING 175
SWIDTH 840 0
DWIDTH 14 0
BBX 12 12 0 0
BITMAP
FFF0
8010
8010
8010
8010
8010
8010
8010
8010
8010
8010
FFF0
ENDCHAR
STARTCHAR 00B0
ENCODING 176
SWIDTH 840 0
DWIDTH 14 0
BBX 12 12 0 0
BITMAP
FFF0
8010
8010
8010
8010
8010
8010
8010
8010
8010
8010
FFF0
ENDCHAR
STARTCHAR 00B1
ENCODING 177
SWIDTH 840 0
DWIDTH 14 0
BBX 12 12 0 0
BITMAP
FFF0
8010
8010
8010
8010
8010
8010
8010
8010
8010
8010
FFF0
ENDCHAR
STARTCHAR 00B2
ENCODING 178
SWIDTH 840 0
DWIDTH 14 0
BBX 12 12 0 0
BITMAP
FFF0
8010
8010
8010
8010
8010
8010
8010
8010
8010
8010
FFF0
ENDCHAR
STARTCHAR 00B3
ENCODING 179
SWIDTH 840 0
DWIDTH 14 0
BBX 12 12 0 0
BITMAP
FFF0
8010
8010
8010
8010
8010
8010
8010
8010
8010
8010
FFF0
ENDCHAR
STARTCHAR 00B4
ENCODING 180
SWIDTH 840 0
DWIDTH 14 0
BBX 12 12 0 0
BITMAP
FFF0
8010
8010
8010
8010
8010
8010
8010
8010
8010
8010
FFF0
ENDCHAR
STARTCHAR 00B5
ENCODING 181
SWIDTH 840 0
DWIDTH 14 0
BBX 12 12 0 0
BITMAP
FFF0
8010
8010
8010
8010
8010
8010
8010
8010
8010
8010
FFF0
ENDCHAR
STARTCHAR 00B6
ENCODING 182
SWIDTH 840 0
DWIDTH 14 0
BBX 12 12 0 0
BITMAP
FFF0
8010
8010
8010
8010
8010
8010
8010
8010
8010
8010
FFF0
ENDCHAR
STARTCHAR 00B7
ENCODING 183
SWIDTH 840 0
DWIDTH 14 0
BBX 12 12 0 0
BITMAP
FFF0
8010
8010
8010
8010
8010
8010
8010
8010
8010
8010
FFF0
ENDCHAR
STARTCHAR 00B8
ENCODING 184
SWIDTH 840 0
DWIDTH 14 0
BBX 12 12 0 0
BITMAP
FFF0
8010
8010
8010
8010
8010
8010
8010
8010
8010
8010
FFF0
ENDCHAR
STARTCHAR 00B9
ENCODING 185
SWIDTH 840 0
DWIDTH 14 0
BBX 12 12 0 0
BITMAP
FFF0
8010
8010
8010
8010
8010
8010
8010
8010
8010
8010
FFF0
ENDCHAR
STARTCHAR 00BA
ENCODING 186
SWIDTH 840 0
DWIDTH 14 0
BBX 12 12 0 0
BITMAP
FFF0
8010
8010
8010
8010
8010
8010
8010
8010
8010
8010
FFF0
ENDCHAR
STARTCHAR 00BB
ENCODING 187
SWIDTH 840 0
DWIDTH 14 0
BBX 12 12 0 0
BITMAP
FFF0
8010
8010
8010
8010
8010
8010
8010
8010
8010
8010
FFF0
ENDCHAR
STARTCHAR 00BC
ENCODING 188
SWIDTH 840 0
DWIDTH 14 0
BBX 12 12 0 0
BITMAP
FFF0
8010
8010
8010
8010
8010
8010
8010
8010
8010
8010
FFF0
ENDCHAR
STARTCHAR 00BD
ENCODING 189
SWIDTH 840 0
DWIDTH 14 0
BBX 12 12 0 0
BITMAP
FFF0
8010
8010
8010
8010
8010
8010
8010
8010
8010
8010
FFF0
ENDCHAR
STARTCHAR 00BE
ENCODING 190
SWIDTH 840 0
DWIDTH 14 0
BBX 12 12 0 0
BITMAP
FFF0
8010
8010
8010
8010
8010
8010
8010
8010
8010
8010
FFF0
ENDCHAR
STARTCHAR 00BF
ENCODING 191
SWIDTH 360 0
DWIDTH 6 0
BBX 5 12 0 0
BITMAP
78
F8
D8
D8
C0
C0
C0
C0
C0
C0
E0
60
ENDCHAR
STARTCHAR 00C0
ENCODING 192
SWIDTH 840 0
DWIDTH 14 0
BBX 12 12 0 0
BITMAP
FFF0
8010
8010
8010
8010
8010
8010
8010
8010
8010
8010
FFF0
ENDCHAR
STARTCHAR 00C1
ENCODING 193
SWIDTH 840 0
DWIDTH 14 0
BBX 12 12 0 0
BITMAP
FFF0
8010
8010
8010
8010
8010
8010
8010
8010
8010
8010
FFF0
ENDCHAR
STARTCHAR 00C2
ENCODING 194
SWIDTH 840 0
DWIDTH 14 0
BBX 12 12 0 0
BITMAP
FFF0
8010
8010
8010
8010
8010
8010
8010
8010
8010
8010
FFF0
ENDCHAR
STARTCHAR 00C3
ENCODING 195
SWIDTH 840 0
DWIDTH 14 0
BBX 12 12 0 0
BITMAP
FFF0
8010
8010
8010
8010
8010
8010
8010
8010
8010
8010
FFF0
ENDCHAR
STARTCHAR 00C4
ENCODING 196
SWIDTH 840 0
DWIDTH 14 0
BBX 12 12 0 0
BITMAP
FFF0
8010
8010
8010
8010
8010
8010
8010
8010
8010
8010
FFF0
ENDCHAR
STARTCHAR 00C5
ENCODING 197
SWIDTH 960 0
DWIDTH 16 0
BBX 15 12 0 0
BITMAP
7FFC
FFFE
C006
C006
C006
FFC0
FFC0
C006
C006
C006
FFFE
7FFC
ENDCHAR
STARTCHAR 00C6
ENCODING 198
SWIDTH 960 0
DWIDTH 16 0
BBX 15 12 0 0
BITMAP
7FFC
FFFE
C006
C006
C006
FFC0
FFC0
C006
C006
C006
FFFE
7FFC
ENDCHAR
STARTCHAR 00C7
ENCODING 199
SWIDTH 1080 0
DWIDTH 18 0
BBX 16 12 0 0
BITMAP
07FF
07FF
0C00
0C00
1800
1800
3800
3000
3000
6000
7FFF
FFFF
ENDCHAR
STARTCHAR 00C8
ENCODING 200
SWIDTH 840 0
DWIDTH 14 0
BBX 12 12 0 0
BITMAP
FFF0
8010
8010
8010
8010
8010
8010
8010
8010
8010
8010
FFF0
ENDCHAR
STARTCHAR 00C9
ENCODING 201
SWIDTH 840 0
DWIDTH 14 0
BBX 12 12 0 0
BITMAP
FFF0
8010
8010
8010
8010
8010
8010
8010
8010
8010
8010
FFF0
ENDCHAR
STARTCHAR 00CA
ENCODING 202
SWIDTH 840 0
DWIDTH 14 0
BBX 12 12 0 0
BITMAP
FFF0
8010
8010
8010
8010
8010
8010
8010
8010
8010
8010
FFF0
ENDCHAR
STARTCHAR 00CB
ENCODING 203
SWIDTH 960 0
DWIDTH 16 0
BBX 15 12 0 0
BITMAP
0FE0
0FE0
0C60
0C60
0C60
1830
F01E
E00E
0000
0000
7FFC
7FFC
ENDCHAR
STARTCHAR 00CC
ENCODING 204
SWIDTH 840 0
DWIDTH 14 0
BBX 12 12 0 0
BITMAP
FFF0
8010
8010
8010
8010
8010
8010
8010
8010
8010
8010
FFF0
ENDCHAR
STARTCHAR 00CD
ENCODING 205
SWIDTH 840 0
DWIDTH 14 0
BBX 12 12 0 0
BITMAP
FFF0
8010
8010
8010
8010
8010
8010
8010
8010
8010
8010
FFF0
ENDCHAR
STARTCHAR 00CE
ENCODING 206
SWIDTH 840 0
DWIDTH 14 0
BBX 12 12 0 0
BITMAP
FFF0
8010
8010
8010
8010
8010
8010
8010
8010
8010
8010
FFF0
ENDCHAR
STARTCHAR 00CF
ENCODING 207
SWIDTH 840 0
DWIDTH 14 0
BBX 12 12 0 0
BITMAP
FFF0
8010
8010
8010
8010
8010
8010
8010
8010
8010
8010
FFF0
ENDCHAR
STARTCHAR 00D0
ENCODING 208
SWIDTH 1020 0
DWIDTH 17 0
BBX 15 12 0 0
BITMAP
7FFC
FFFE
C002
C002
C002
C1FE
C1FE
C002
C002
C006
FFFE
7FFC
ENDCHAR
STARTCHAR 00D1
ENCODING 209
SWIDTH 780 0
DWIDTH 13 0
BBX 12 12 0 0
BITMAP
FFC0
FFC0
C600
C300
C300
C100
C180
C080
C0C0
C040
C060
C030
ENDCHAR
STARTCHAR 00D2
ENCODING 210
SWIDTH 840 0
DWIDTH 14 0
BBX 12 12 0 0
BITMAP
FFF0
8010
8010
8010
8010
8010
8010
8010
8010
8010
8010
FFF0
ENDCHAR
STARTCHAR 00D3
ENCODING 211
SWIDTH 840 0
DWIDTH 14 0
BBX 12 12 0 0
BITMAP
FFF0
8010
8010
8010
8010
8010
8010
8010
8010
8010
8010
FFF0
ENDCHAR
STARTCHAR 00D4
ENCODING 212
SWIDTH 840 0
DWIDTH 14 0
BBX 12 12 0 0
BITMAP
FFF0
8010
8010
8010
8010
8010
8010
8010
8010
8010
8010
FFF0
ENDCHAR
STARTCHAR 00D5
ENCODING 213
SWIDTH 840 0
DWIDTH 14 0
BBX 12 12 0 0
BITMAP
FFF0
8010
8010
8010
8010
8010
8010
8010
8010
8010
8010
FFF0
ENDCHAR
STARTCHAR 00D6
ENCODING 214
SWIDTH 840 0
DWIDTH 14 0
BBX 12 12 0 0
BITMAP
FFF0
8010
8010
8010
8010
8010
8010
8010
8010
8010
8010
FFF0
ENDCHAR
STARTCHAR 00D7
ENCODING 215
SWIDTH 840 0
DWIDTH 14 0
BBX 12 12 0 0
BITMAP
FFF0
8010
8010
8010
8010
8010
8010
8010
8010
8010
8010
FFF0
ENDCHAR
STARTCHAR 00D8
ENCODING 216
SWIDTH 840 0
DWIDTH 14 0
BBX 12 12 0 0
BITMAP
79E0
F9F0
C010
C010
C010
C010
C010
C010
C010
C010
F9F0
79E0
ENDCHAR
STARTCHAR 00D9
ENCODING 217
SWIDTH 840 0
DWIDTH 14 0
BBX 12 12 0 0
BITMAP
FFF0
8010
8010
8010
8010
8010
8010
8010
8010
8010
8010
FFF0
ENDCHAR
STARTCHAR 00DA
ENCODING 218
SWIDTH 840 0
DWIDTH 14 0
BBX 12 12 0 0
BITMAP
FFF0
8010
8010
8010
8010
8010
8010
8010
8010
8010
8010
FFF0
ENDCHAR
STARTCHAR 00DB
ENCODING 219
SWIDTH 840 0
DWIDTH 14 0
BBX 12 12 0 0
BITMAP
FFF0
8010
8010
8010
8010
8010
8010
8010
8010
8010
8010
FFF0
ENDCHAR
STARTCHAR 00DC
ENCODING 220
SWIDTH 840 0
DWIDTH 14 0
BBX 12 12 0 0
BITMAP
FFF0
8010
8010
8010
8010
8010
8010
8010
8010
8010
8010
FFF0
ENDCHAR
STARTCHAR 00DD
ENCODING 221
SWIDTH 840 0
DWIDTH 14 0
BBX 12 12 0 0
BITMAP
FFF0
8010
8010
8010
8010
8010
8010
8010
8010
8010
8010
FFF0
ENDCHAR
STARTCHAR 00DE
ENCODING 222
SWIDTH 840 0
DWIDTH 14 0
BBX 13 12 0 0
BITMAP
C000
C000
C000
C000
C000
FE00
FF00
C180
C0C0
C060
C060
C038
ENDCHAR
STARTCHAR 00DF
ENCODING 223
SWIDTH 1140 0
DWIDTH 19 0
BBX 17 12 0 0
BITMAP
DFFF80
DFFF00
D80300
000600
000600
000E00
000C00
000C00
001800
D81800
DFF000
DFF000
ENDCHAR
STARTCHAR 00E0
ENCODING 224
SWIDTH 840 0
DWIDTH 14 0
BBX 12 12 0 0
BITMAP
FFF0
8010
8010
8010
8010
8010
8010
8010
8010
8010
8010
FFF0
ENDCHAR
STARTCHAR 00E1
ENCODING 225
SWIDTH 840 0
DWIDTH 14 0
BBX 12 12 0 0
BITMAP
FFF0
8010
8010
8010
8010
8010
8010
8010
8010
8010
8010
FFF0
ENDCHAR
STARTCHAR 00E2
ENCODING 226
SWIDTH 840 0
DWIDTH 14 0
BBX 12 12 0 0
BITMAP
FFF0
8010
8010
8010
8010
8010
8010
8010
8010
8010
8010
FFF0
ENDCHAR
STARTCHAR 00E3
ENCODING 227
SWIDTH 840 0
DWIDTH 14 0
BBX 12 12 0 0
BITMAP
FFF0
8010
8010
8010
8010
8010
8010
8010
8010
8010
8010
FFF0
ENDCHAR
STARTCHAR 00E4
ENCODING 228
SWIDTH 840 0
DWIDTH 14 0
BBX 12 12 0 0
BITMAP
FFF0
8010
8010
8010
8010
8010
8010
8010
8010
8010
8010
FFF0
ENDCHAR
STARTCHAR 00E5
ENCODING 229
SWIDTH 960 0
DWIDTH 16 0
BBX 15 12 0 0
BITMAP
7FFC
FFFE
C006
C006
C006
07FE
07FE
C006
C006
C006
FFFE
7FFC
ENDCHAR
STARTCHAR 00E6
ENCODING 230
SWIDTH 960 0
DWIDTH 16 0
BBX 15 12 0 0
BITMAP
7FFC
FFFE
C006
C006
C006
07FE
07FE
C006
C006
C006
FFFE
7FFC
ENDCHAR
STARTCHAR 00E7
ENCODING 231
SWIDTH 1080 0
DWIDTH 18 0
BBX 16 12 0 0
BITMAP
FFE0
FFE0
0030
0030
0018
0018
000C
000C
0006
0006
FFFF
FFFF
ENDCHAR
STARTCHAR 00E8
ENCODING 232
SWIDTH 840 0
DWIDTH 14 0
BBX 12 12 0 0
BITMAP
FFF0
8010
8010
8010
8010
8010
8010
8010
8010
8010
8010
FFF0
ENDCHAR
STARTCHAR 00E9
ENCODING 233
SWIDTH 840 0
DWIDTH 14 0
BBX 12 12 0 0
BITMAP
FFF0
8010
8010
8010
8010
8010
8010
8010
8010
8010
8010
FFF0
ENDCHAR
STARTCHAR 00EA
ENCODING 234
SWIDTH 840 0
DWIDTH 14 0
BBX 12 12 0 0
BITMAP
FFF0
8010
8010
8010
8010
8010
8010
8010
8010
8010
8010
FFF0
ENDCHAR
STARTCHAR 00EB
ENCODING 235
SWIDTH 960 0
DWIDTH 16 0
BBX 15 12 0 0
BITMAP
0FE0
0FE0
0C60
0C60
0860
1830
F01E
E00E
0000
0000
7FFC
7FFC
ENDCHAR
STARTCHAR 00EC
ENCODING 236
SWIDTH 840 0
DWIDTH 14 0
BBX 12 12 0 0
BITMAP
FFF0
8010
8010
8010
8010
8010
8010
8010
8010
8010
8010
FFF0
ENDCHAR
STARTCHAR 00ED
ENCODING 237
SWIDTH 840 0
DWIDTH 14 0
BBX 12 12 0 0
BITMAP
FFF0
8010
8010
8010
8010
8010
8010
8010
8010
8010
8010
FFF0
ENDCHAR
STARTCHAR 00EE
ENCODING 238
SWIDTH 840 0
DWIDTH 14 0
BBX 12 12 0 0
BITMAP
FFF0
8010
8010
8010
8010
8010
8010
8010
8010
8010
8010
FFF0
ENDCHAR
STARTCHAR 00EF
ENCODING 239
SWIDTH 840 0
DWIDTH 14 0
BBX 12 12 0 0
BITMAP
FFF0
8010
8010
8010
8010
8010
8010
8010
8010
8010
8010
FFF0
ENDCHAR
STARTCHAR 00F0
ENCODING 240
SWIDTH 1020 0
DWIDTH 17 0
BBX 15 12 0 0
BITMAP
7FFC
FFFE
C006
C002
C002
FF82
FF82
C002
C002
C006
FFFE
7FFC
ENDCHAR
STARTCHAR 00F1
ENCODING 241
SWIDTH 780 0
DWIDTH 13 0
BBX 12 12 0 0
BITMAP
3FF0
3FF0
0430
0C30
0830
1830
1830
3030
3030
6030
6030
C030
ENDCHAR
STARTCHAR 00F2
ENCODING 242
SWIDTH 840 0
DWIDTH 14 0
BBX 12 12 0 0
BITMAP
FFF0
8010
8010
8010
8010
8010
8010
8010
8010
8010
8010
FFF0
ENDCHAR
STARTCHAR 00F3
ENCODING 243
SWIDTH 840 0
DWIDTH 14 0
BBX 12 12 0 0
BITMAP
FFF0
8010
8010
8010
8010
8010
8010
8010
8010
8010
8010
FFF0
ENDCHAR
STARTCHAR 00F4
ENCODING 244
SWIDTH 840 0
DWIDTH 14 0
BBX 12 12 0 0
BITMAP
FFF0
8010
8010
8010
8010
8010
8010
8010
8010
8010
8010
FFF0
ENDCHAR
STARTCHAR 00F5
ENCODING 245
SWIDTH 840 0
DWIDTH 14 0
BBX 12 12 0 0
BITMAP
FFF0
8010
8010
8010
8010
8010
8010
8010
8010
8010
8010
FFF0
ENDCHAR
STARTCHAR 00F6
ENCODING 246
SWIDTH 840 0
DWIDTH 14 0
BBX 12 12 0 0
BITMAP
FFF0
8010
8010
8010
8010
8010
8010
8010
8010
8010
8010
FFF0
ENDCHAR
STARTCHAR 00F7
ENCODING 247
SWIDTH 840 0
DWIDTH 14 0
BBX 12 12 0 0
BITMAP
FFF0
8010
8010
8010
8010
8010
8010
8010
8010
8010
8010
FFF0
ENDCHAR
STARTCHAR 00F8
ENCODING 248
SWIDTH 840 0
DWIDTH 14 0
BBX 12 12 0 0
BITMAP
79E0
F9F0
C010
C010
C010
C010
C010
C010
C010
C010
F9F0
79E0
ENDCHAR
STARTCHAR 00F9
ENCODING 249
SWIDTH 840 0
DWIDTH 14 0
BBX 12 12 0 0
BITMAP
FFF0
8010
8010
8010
8010
8010
8010
8010
8010
8010
8010
FFF0
ENDCHAR
STARTCHAR 00FA
ENCODING 250
SWIDTH 840 0
DWIDTH 14 0
BBX 12 12 0 0
BITMAP
FFF0
8010
8010
8010
8010
8010
8010
8010
8010
8010
8010
FFF0
ENDCHAR
STARTCHAR 00FB
ENCODING 251
SWIDTH 840 0
DWIDTH 14 0
BBX 12 12 0 0
BITMAP
FFF0
8010
8010
8010
8010
8010
8010
8010
8010
8010
8010
FFF0
ENDCHAR
STARTCHAR 00FC
ENCODING 252
SWIDTH 840 0
DWIDTH 14 0
BBX 12 12 0 0
BITMAP
FFF0
8010
8010
8010
8010
8010
8010
8010
8010
8010
8010
FFF0
ENDCHAR
STARTCHAR 00FD
ENCODING 253
SWIDTH 840 0
DWIDTH 14 0
BBX 12 12 0 0
BITMAP
FFF0
8010
8010
8010
8010
8010
8010
8010
8010
8010
8010
FFF0
ENDCHAR
STARTCHAR 00FE
ENCODING 254
SWIDTH 840 0
DWIDTH 14 0
BBX 13 12 0 0
BITMAP
0018
0018
0018
0018
0018
03F8
07F8
0C18
1818
3018
6018
E018
ENDCHAR
STARTCHAR 00FF
ENCODING 255
SWIDTH 840 0
DWIDTH 14 0
BBX 12 12 0 0
BITMAP
FFF0
8010
8010
8010
8010
8010
8010
8010
8010
8010
8010
FFF0
ENDCHAR
STARTCHAR 0131
ENCODING 305
SWIDTH 840 0
DWIDTH 14 0
BBX 12 12 0 0
BITMAP
FFF0
8010
8010
8010
8010
8010
8010
8010
8010
8010
8010
FFF0
ENDCHAR
STARTCHAR 02C6
ENCODING 710
SWIDTH 840 0
DWIDTH 14 0
BBX 12 12 0 0
BITMAP
FFF0
8010
8010
8010
8010
8010
8010
8010
8010
8010
8010
FFF0
ENDCHAR
STARTCHAR 02C7
ENCODING 711
SWIDTH 840 0
DWIDTH 14 0
BBX 12 12 0 0
BITMAP
FFF0
8010
8010
8010
8010
8010
8010
8010
8010
8010
8010
FFF0
ENDCHAR
STARTCHAR 02C9
ENCODING 713
SWIDTH 840 0
DWIDTH 14 0
BBX 12 12 0 0
BITMAP
FFF0
8010
8010
8010
8010
8010
8010
8010
8010
8010
8010
FFF0
ENDCHAR
STARTCHAR 02D8
ENCODING 728
SWIDTH 840 0
DWIDTH 14 0
BBX 12 12 0 0
BITMAP
FFF0
8010
8010
8010
8010
8010
8010
8010
8010
8010
8010
FFF0
ENDCHAR
STARTCHAR 02D9
ENCODING 729
SWIDTH 840 0
DWIDTH 14 0
BBX 12 12 0 0
BITMAP
FFF0
8010
8010
8010
8010
8010
8010
8010
8010
8010
8010
FFF0
ENDCHAR
STARTCHAR 02DA
ENCODING 730
SWIDTH 840 0
DWIDTH 14 0
BBX 12 12 0 0
BITMAP
FFF0
8010
8010
8010
8010
8010
8010
8010
8010
8010
8010
FFF0
ENDCHAR
STARTCHAR 02DB
ENCODING 731
SWIDTH 840 0
DWIDTH 14 0
BBX 12 12 0 0
BITMAP
FFF0
8010
8010
8010
8010
8010
8010
8010
8010
8010
8010
FFF0
ENDCHAR
STARTCHAR 02DC
ENCODING 732
SWIDTH 840 0
DWIDTH 14 0
BBX 12 12 0 0
BITMAP
FFF0
8010
8010
8010
8010
8010
8010
8010
8010
8010
8010
FFF0
ENDCHAR
STARTCHAR 02DD
ENCODING 733
SWIDTH 840 0
DWIDTH 14 0
BBX 12 12 0 0
BITMAP
FFF0
8010
8010
8010
8010
8010
8010
8010
8010
8010
8010
FFF0
ENDCHAR
STARTCHAR 037E
ENCODING 894
SWIDTH 180 0
DWIDTH 3 0
BBX 2 12 0 0
BITMAP
C0
C0
C0
C0
C0
C0
C0
C0
C0
C0
C0
C0
ENDCHAR
STARTCHAR 2013
ENCODING 8211
SWIDTH 600 0
DWIDTH 10 0
BBX 9 2 0 5
BITMAP
FF80
FF80
ENDCHAR
STARTCHAR 2014
ENCODING 8212
SWIDTH 600 0
DWIDTH 10 0
BBX 9 2 0 5
BITMAP
FF80
FF80
ENDCHAR
STARTCHAR 2018
ENCODING 8216
SWIDTH 300 0
DWIDTH 5 0
BBX 3 7 0 7
BITMAP
E0
E0
C0
C0
C0
C0
C0
ENDCHAR
STARTCHAR 2019
ENCODING 8217
SWIDTH 300 0
DWIDTH 5 0
BBX 3 7 0 7
BITMAP
E0
E0
20
20
20
20
20
ENDCHAR
STARTCHAR 201A
ENCODING 8218
SWIDTH 840 0
DWIDTH 14 0
BBX 12 12 0 0
BITMAP
FFF0
8010
8010
8010
8010
8010
8010
8010
8010
8010
8010
FFF0
ENDCHAR
STARTCHAR 201C
ENCODING 8220
SWIDTH 480 0
DWIDTH 8 0
BBX 7 6 0 6
BITMAP
C6
66
36
1E
0E
06
ENDCHAR
STARTCHAR 201D
ENCODING 8221
SWIDTH 480 0
DWIDTH 8 0
BBX 7 6 0 6
BITMAP
C6
CC
D8
F0
E0
C0
ENDCHAR
STARTCHAR 201E
ENCODING 8222
SWIDTH 840 0
DWIDTH 14 0
BBX 12 12 0 0
BITMAP
FFF0
8010
8010
8010
8010
8010
8010
8010
8010
8010
8010
FFF0
ENDCHAR
STARTCHAR 2020
ENCODING 8224
SWIDTH 840 0
DWIDTH 14 0
BBX 12 12 0 0
BITMAP
FFF0
8010
8010
8010
8010
8010
8010
8010
8010
8010
8010
FFF0
ENDCHAR
STARTCHAR 2021
ENCODING 8225
SWIDTH 840 0
DWIDTH 14 0
BBX 12 12 0 0
BITMAP
FFF0
8010
8010
8010
8010
8010
8010
8010
8010
8010
8010
FFF0
ENDCHAR
STARTCHAR 2022
ENCODING 8226
SWIDTH 840 0
DWIDTH 14 0
BBX 12 12 0 0
BITMAP
FFF0
8010
8010
8010
8010
8010
8010
8010
8010
8010
8010
FFF0
ENDCHAR
STARTCHAR 2026
ENCODING 8230
SWIDTH 840 0
DWIDTH 14 0
BBX 12 12 0 0
BITMAP
FFF0
8010
8010
8010
8010
8010
8010
8010
8010
8010
8010
FFF0
ENDCHAR
STARTCHAR 2039
ENCODING 8249
SWIDTH 840 0
DWIDTH 14 0
BBX 12 12 0 0
BITMAP
FFF0
8010
8010
8010
8010
8010
8010
8010
8010
8010
8010
FFF0
ENDCHAR
STARTCHAR 203A
ENCODING 8250
SWIDTH 840 0
DWIDTH 14 0
BBX 12 12 0 0
BITMAP
FFF0
8010
8010
8010
8010
8010
8010
8010
8010
8010
8010
FFF0
ENDCHAR
STARTCHAR 2044
ENCODING 8260
SWIDTH 840 0
DWIDTH 14 0
BBX 12 12 0 0
BITMAP
FFF0
8010
8010
8010
8010
8010
8010
8010
8010
8010
8010
FFF0
ENDCHAR
STARTCHAR 20A3
ENCODING 8355
SWIDTH 780 0
DWIDTH 13 0
BBX 12 12 0 0
BITMAP
2600
FFF0
FFF0
2660
2660
00C0
0180
0380
0300
0600
0C00
1C00
ENDCHAR
STARTCHAR 20A4
ENCODING 8356
SWIDTH 780 0
DWIDTH 13 0
BBX 12 12 0 0
BITMAP
2600
FFF0
FFF0
2660
2660
00C0
0180
0380
0300
0600
0C00
1C00
ENDCHAR
STARTCHAR 20A7
ENCODING 8359
SWIDTH 780 0
DWIDTH 13 0
BBX 12 12 0 0
BITMAP
2600
FFF0
FFF0
2660
2660
00C0
0180
0380
0300
0600
0C00
1C00
ENDCHAR
STARTCHAR 20AC
ENCODING 8364
SWIDTH 840 0
DWIDTH 14 0
BBX 12 12 0 0
BITMAP
0980
7FF0
C9B0
C990
0980
FFF0
C9B0
0980
C990
E9B0
7FF0
0980
ENDCHAR
STARTCHAR 2116
ENCODING 8470
SWIDTH 840 0
DWIDTH 14 0
BBX 12 12 0 0
BITMAP
FFF0
8010
8010
8010
8010
8010
8010
8010
8010
8010
8010
FFF0
ENDCHAR
STARTCHAR 2122
ENCODING 8482
SWIDTH 840 0
DWIDTH 14 0
BBX 12 12 0 0
BITMAP
FFF0
8010
8010
8010
8010
8010
8010
8010
8010
8010
8010
FFF0
ENDCHAR
STARTCHAR 2202
ENCODING 8706
SWIDTH 840 0
DWIDTH 14 0
BBX 12 12 0 0
BITMAP
FFF0
8010
8010
8010
8010
8010
8010
8010
8010
8010
8010
FFF0
ENDCHAR
STARTCHAR 2206
ENCODING 8710
SWIDTH 840 0
DWIDTH 14 0
BBX 12 12 0 0
BITMAP
FFF0
8010
8010
8010
8010
8010
8010
8010
8010
8010
8010
FFF0
ENDCHAR
STARTCHAR 220F
ENCODING 8719
SWIDTH 840 0
DWIDTH 14 0
BBX 12 12 0 0
BITMAP
FFF0
8010
8010
8010
8010
8010
8010
8010
8010
8010
8010
FFF0
ENDCHAR
STARTCHAR 2211
ENCODING 8721
SWIDTH 840 0
DWIDTH 14 0
BBX 12 12 0 0
BITMAP
FFF0
8010
8010
8010
8010
8010
8010
8010
8010
8010
8010
FFF0
ENDCHAR
STARTCHAR 2212
ENCODING 8722
SWIDTH 600 0
DWIDTH 10 0
BBX 9 2 0 5
BITMAP
FF80
FF80
ENDCHAR
STARTCHAR 2215
ENCODING 8725
SWIDTH 840 0
DWIDTH 14 0
BBX 12 12 0 0
BITMAP
FFF0
8010
8010
8010
8010
8010
8010
8010
8010
8010
8010
FFF0
ENDCHAR
STARTCHAR 2219
ENCODING 8729
SWIDTH 840 0
DWIDTH 14 0
BBX 12 12 0 0
BITMAP
FFF0
8010
8010
8010
8010
8010
8010
8010
8010
8010
8010
FFF0
ENDCHAR
STARTCHAR 221A
ENCODING 8730
SWIDTH 840 0
DWIDTH 14 0
BBX 12 12 0 0
BITMAP
FFF0
8010
8010
8010
8010
8010
8010
8010
8010
8010
8010
FFF0
ENDCHAR
STARTCHAR 221E
ENCODING 8734
SWIDTH 840 0
DWIDTH 14 0
BBX 12 12 0 0
BITMAP
FFF0
8010
8010
8010
8010
8010
8010
8010
8010
8010
8010
FFF0
ENDCHAR
STARTCHAR 222B
ENCODING 8747
SWIDTH 840 0
DWIDTH 14 0
BBX 12 12 0 0
BITMAP
FFF0
8010
8010
8010
8010
8010
8010
8010
8010
8010
8010
FFF0
ENDCHAR
STARTCHAR 2248
ENCODING 8776
SWIDTH 840 0
DWIDTH 14 0
BBX 12 12 0 0
BITMAP
FFF0
8010
8010
8010
8010
8010
8010
8010
8010
8010
8010
FFF0
ENDCHAR
STARTCHAR 2264
ENCODING 8804
SWIDTH 840 0
DWIDTH 14 0
BBX 12 12 0 0
BITMAP
FFF0
8010
8010
8010
8010
8010
8010
8010
8010
8010
8010
FFF0
ENDCHAR
STARTCHAR 2265
ENCODING 8805
SWIDTH 840 0
DWIDTH 14 0
BBX 12 12 0 0
BITMAP
FFF0
8010
8010
8010
8010
8010
8010
8010
8010
8010
8010
FFF0
ENDCHAR
STARTCHAR F001
ENCODING 61441
SWIDTH 540 0
DWIDTH 9 0
BBX 0 0 0 0
BITMAP
ENDCHAR
STARTCHAR F002
ENCODING 61442
SWIDTH 540 0
DWIDTH 9 0
BBX 0 0 0 0
BITMAP
ENDCHAR
STARTCHAR FB01
ENCODING 64257
SWIDTH 540 0
DWIDTH 9 0
BBX 0 0 0 0
BITMAP
ENDCHAR
STARTCHAR FB02
ENCODING 64258
SWIDTH 540 0
DWIDTH 9 0
BBX 0 0 0 0
BITMAP
ENDCHAR
ENDFONT
